<svg width="470" height="427" viewBox="0 0 470 427" fill="none" xmlns="http://www.w3.org/2000/svg">
<path d="M253.227 278.934L199.04 225.387L199.68 224.747C236.8 183.36 263.253 135.787 278.827 85.44H341.334V42.667H192V0H149.333V42.667H0V85.12H238.293C223.893 126.293 201.386 165.333 170.666 199.467C150.826 177.387 134.399 153.387 121.386 128H78.72C94.293 162.773 115.627 195.627 142.293 225.28L33.813 332.48L64 362.667L170.667 256L237.014 322.347L253.227 278.934Z" fill="#98FCD2"/>
<path d="M373.333 170.667H330.666L234.666 426.667H277.333L301.333 362.667H402.666L426.666 426.667H469.333L373.333 170.667ZM317.333 320L352 227.52L386.667 320H317.333Z" fill="#3B3E3F"/>
</svg>
